        <svg xmlns="http://www.w3.org/2000/svg" width="30" height="30" viewBox="0 0 30 30" fill="none">
            <path d="M17.8594 4.74375C17.8594 3.16875 16.575 1.875 14.9906 1.875C13.4062 1.875 12.1125 3.16875 12.1219 4.74375V12.1219H4.74375C3.16875 12.1219 1.875 13.4062 1.875 14.9906C1.875 16.5656 3.16875 17.8594 4.74375 17.8594H12.1219V25.2281C12.1219 26.8031 13.4062 28.0969 14.9906 28.0969C16.5656 28.0969 17.8594 26.8125 17.8594 25.2281V17.8594H25.2281C26.8031 17.8594 28.0969 16.575 28.0969 14.9906C28.0969 13.4156 26.8125 12.1219 25.2281 12.1219H17.8594V4.74375Z" fill="#457B9D" />
        </svg>